<mxfile host="app.diagrams.net" agent="Mozilla/5.0 (Macintosh; Intel Mac OS X 10_15_7) AppleWebKit/537.36 (KHTML, like Gecko) Chrome/129.0.0.0 Safari/537.36" version="24.8.3">
  <diagram name="페이지-1" id="1gX-pNL0SyD8wLMYCmfp">
    <mxGraphModel dx="1113" dy="679" grid="1" gridSize="10" guides="1" tooltips="1" connect="1" arrows="1" fold="1" page="1" pageScale="1" pageWidth="827" pageHeight="1169" math="0" shadow="0">
      <root>
        <mxCell id="0" />
        <mxCell id="1" parent="0" />
        <mxCell id="PVpS6hmHOcwL10QfBA_1-4" value="" style="edgeStyle=orthogonalEdgeStyle;rounded=0;orthogonalLoop=1;jettySize=auto;html=1;" edge="1" parent="1" source="PVpS6hmHOcwL10QfBA_1-2" target="PVpS6hmHOcwL10QfBA_1-3">
          <mxGeometry relative="1" as="geometry" />
        </mxCell>
        <mxCell id="PVpS6hmHOcwL10QfBA_1-2" value="상점 시작" style="rounded=0;whiteSpace=wrap;html=1;" vertex="1" parent="1">
          <mxGeometry x="354" y="60" width="120" height="60" as="geometry" />
        </mxCell>
        <mxCell id="PVpS6hmHOcwL10QfBA_1-16" value="" style="edgeStyle=orthogonalEdgeStyle;rounded=0;orthogonalLoop=1;jettySize=auto;html=1;" edge="1" parent="1" source="PVpS6hmHOcwL10QfBA_1-3" target="PVpS6hmHOcwL10QfBA_1-15">
          <mxGeometry relative="1" as="geometry" />
        </mxCell>
        <mxCell id="PVpS6hmHOcwL10QfBA_1-3" value="상점 주인 대사" style="rounded=0;whiteSpace=wrap;html=1;" vertex="1" parent="1">
          <mxGeometry x="354" y="200" width="120" height="60" as="geometry" />
        </mxCell>
        <mxCell id="PVpS6hmHOcwL10QfBA_1-12" value="예" style="edgeStyle=orthogonalEdgeStyle;rounded=0;orthogonalLoop=1;jettySize=auto;html=1;" edge="1" parent="1" source="PVpS6hmHOcwL10QfBA_1-7" target="PVpS6hmHOcwL10QfBA_1-11">
          <mxGeometry relative="1" as="geometry" />
        </mxCell>
        <mxCell id="PVpS6hmHOcwL10QfBA_1-19" value="아니오" style="edgeStyle=orthogonalEdgeStyle;rounded=0;orthogonalLoop=1;jettySize=auto;html=1;exitX=1;exitY=0.5;exitDx=0;exitDy=0;" edge="1" parent="1" source="PVpS6hmHOcwL10QfBA_1-7">
          <mxGeometry x="-0.7468" y="20" relative="1" as="geometry">
            <mxPoint x="414" y="290" as="targetPoint" />
            <Array as="points">
              <mxPoint x="510" y="490" />
              <mxPoint x="510" y="290" />
              <mxPoint x="490" y="290" />
            </Array>
            <mxPoint as="offset" />
          </mxGeometry>
        </mxCell>
        <mxCell id="PVpS6hmHOcwL10QfBA_1-7" value="물건 구입하기를&lt;div&gt;&lt;span style=&quot;background-color: initial;&quot;&gt;&amp;nbsp;눌렀는가?&lt;/span&gt;&lt;/div&gt;" style="rhombus;whiteSpace=wrap;html=1;rounded=0;" vertex="1" parent="1">
          <mxGeometry x="338" y="450" width="152" height="80" as="geometry" />
        </mxCell>
        <mxCell id="PVpS6hmHOcwL10QfBA_1-14" value="예" style="edgeStyle=orthogonalEdgeStyle;rounded=0;orthogonalLoop=1;jettySize=auto;html=1;" edge="1" parent="1" source="PVpS6hmHOcwL10QfBA_1-11" target="PVpS6hmHOcwL10QfBA_1-13">
          <mxGeometry relative="1" as="geometry" />
        </mxCell>
        <mxCell id="PVpS6hmHOcwL10QfBA_1-20" value="아니오" style="edgeStyle=orthogonalEdgeStyle;rounded=0;orthogonalLoop=1;jettySize=auto;html=1;exitX=1;exitY=0.5;exitDx=0;exitDy=0;" edge="1" parent="1" source="PVpS6hmHOcwL10QfBA_1-11">
          <mxGeometry x="-0.8206" y="20" relative="1" as="geometry">
            <mxPoint x="414" y="290" as="targetPoint" />
            <Array as="points">
              <mxPoint x="510" y="620" />
              <mxPoint x="510" y="290" />
            </Array>
            <mxPoint as="offset" />
          </mxGeometry>
        </mxCell>
        <mxCell id="PVpS6hmHOcwL10QfBA_1-11" value="가진 재화 보다&lt;div&gt;물건 가격이 낮은가?&lt;/div&gt;" style="rhombus;whiteSpace=wrap;html=1;rounded=0;" vertex="1" parent="1">
          <mxGeometry x="338" y="580" width="152" height="80" as="geometry" />
        </mxCell>
        <mxCell id="PVpS6hmHOcwL10QfBA_1-23" style="edgeStyle=orthogonalEdgeStyle;rounded=0;orthogonalLoop=1;jettySize=auto;html=1;exitX=1;exitY=0.5;exitDx=0;exitDy=0;" edge="1" parent="1" source="PVpS6hmHOcwL10QfBA_1-13">
          <mxGeometry relative="1" as="geometry">
            <mxPoint x="414" y="290" as="targetPoint" />
            <Array as="points">
              <mxPoint x="600" y="750" />
              <mxPoint x="600" y="290" />
            </Array>
          </mxGeometry>
        </mxCell>
        <mxCell id="PVpS6hmHOcwL10QfBA_1-13" value="물건 구매 완료" style="whiteSpace=wrap;html=1;rounded=0;" vertex="1" parent="1">
          <mxGeometry x="354" y="720" width="120" height="60" as="geometry" />
        </mxCell>
        <mxCell id="PVpS6hmHOcwL10QfBA_1-18" value="아니오" style="edgeStyle=orthogonalEdgeStyle;rounded=0;orthogonalLoop=1;jettySize=auto;html=1;exitX=0.5;exitY=1;exitDx=0;exitDy=0;entryX=0.5;entryY=0;entryDx=0;entryDy=0;" edge="1" parent="1" source="PVpS6hmHOcwL10QfBA_1-15" target="PVpS6hmHOcwL10QfBA_1-7">
          <mxGeometry relative="1" as="geometry" />
        </mxCell>
        <mxCell id="PVpS6hmHOcwL10QfBA_1-22" value="예" style="edgeStyle=orthogonalEdgeStyle;rounded=0;orthogonalLoop=1;jettySize=auto;html=1;" edge="1" parent="1" source="PVpS6hmHOcwL10QfBA_1-15" target="PVpS6hmHOcwL10QfBA_1-21">
          <mxGeometry relative="1" as="geometry" />
        </mxCell>
        <mxCell id="PVpS6hmHOcwL10QfBA_1-15" value="나가기를&amp;nbsp;&lt;div&gt;눌렀는가?&lt;/div&gt;" style="rhombus;whiteSpace=wrap;html=1;rounded=0;" vertex="1" parent="1">
          <mxGeometry x="338" y="330" width="152" height="80" as="geometry" />
        </mxCell>
        <mxCell id="PVpS6hmHOcwL10QfBA_1-21" value="나가기" style="whiteSpace=wrap;html=1;rounded=0;" vertex="1" parent="1">
          <mxGeometry x="122" y="340" width="120" height="60" as="geometry" />
        </mxCell>
      </root>
    </mxGraphModel>
  </diagram>
</mxfile>
